<?xml version="1.0" standalone="no"?>
<!DOCTYPE svg PUBLIC "-//W3C//DTD SVG 20010904//EN"
 "http://www.w3.org/TR/2001/REC-SVG-20010904/DTD/svg10.dtd">
<svg version="1.0" xmlns="http://www.w3.org/2000/svg"
 width="638.000000pt" height="654.000000pt" viewBox="0 0 638.000000 654.000000"
 preserveAspectRatio="xMidYMid meet">
<metadata>
Created by potrace 1.15, written by Peter Selinger 2001-2017
</metadata>
<g transform="translate(0.000000,654.000000) scale(0.100000,-0.100000)"
stroke="none">
<path d="M2995 6464 c-400 -40 -688 -119 -997 -274 -769 -386 -1304 -1125
-1429 -1974 -53 -364 -31 -638 81 -977 209 -637 695 -1362 1437 -2144 378
-398 715 -685 931 -793 81 -40 100 -46 155 -45 179 1 458 204 928 673 452 452
771 832 1066 1271 455 679 663 1244 639 1739 -19 383 -105 716 -271 1055 -261
530 -672 942 -1200 1201 -366 179 -702 261 -1105 268 -107 2 -213 2 -235 0z
m398 -969 c450 -59 840 -287 1118 -655 91 -120 202 -333 248 -475 171 -532 63
-1114 -287 -1545 -153 -189 -334 -335 -547 -440 -149 -74 -270 -118 -400 -144
-386 -77 -751 -27 -1096 150 -571 294 -924 900 -896 1539 20 438 194 819 517
1128 228 219 519 369 827 426 181 34 341 39 516 16z"/>
<path stroke='#EE4266' stroke-width='150' fill='#EE4266' d="M2555 4705 c-38 -8 -108 -33 -155 -56 -115 -57 -239 -179 -293 -290
-122 -248 -98 -525 65 -768 95 -142 434 -423 708 -588 146 -88 249 -127 318
-120 147 15 553 280 827 538 140 134 217 251 267 409 19 64 23 96 23 210 -1
125 -3 142 -31 221 -82 232 -271 398 -503 445 -195 39 -363 -17 -534 -176
l-74 -69 -54 56 c-69 71 -181 145 -261 173 -82 27 -211 34 -303 15z m277 -98
c90 -32 163 -85 257 -182 45 -47 82 -85 84 -85 1 0 47 44 103 99 82 80 117
106 188 142 79 39 96 43 175 47 167 8 294 -41 417 -162 77 -76 128 -163 160
-272 21 -72 24 -225 5 -304 -21 -88 -94 -228 -159 -305 -154 -182 -509 -455
-738 -567 -116 -56 -151 -61 -234 -29 -184 69 -642 408 -799 591 -236 274
-237 644 -1 880 119 120 231 168 392 169 67 1 102 -4 150 -22z"/>
</g>
</svg>
